<?xml version="1.0" encoding="UTF-8" standalone="no"?>
<!-- Created with Inkscape (http://www.inkscape.org/) -->

<svg
   width="127.99999"
   height="128"
   viewBox="0 0 33.866664 33.866667"
   version="1.1"
   id="svg1"
   xml:space="preserve"
   xmlns="http://www.w3.org/2000/svg"
   xmlns:svg="http://www.w3.org/2000/svg"><defs
     id="defs1" /><g
     id="layer2"><rect
       style="fill:none;fill-opacity:1;stroke:#ffffff;stroke-width:0.529167;stroke-dasharray:none"
       id="rect40"
       width="27.122341"
       height="10.391903"
       x="0.2645835"
       y="10.78254" /><path
       id="polygon1"
       style="baseline-shift:baseline;display:inline;overflow:visible;vector-effect:none;fill:#d92f27;enable-background:accumulate;stop-color:#000000;stop-opacity:1"
       transform="matrix(0.04072869,0,0,0.04072869,7.8441259,11.381051)"
       d="m 169.346,64.555 0.312,-0.313 -6.942,-6.942 -26.248,26.248 38.049,-65.903 -8.502,-4.909 -38.05,65.904 9.493,-35.43 0.114,-0.428 -9.482,-2.542 -9.609,35.859 V 0 h -9.818 V 76.099 L 99.055,40.24 89.571,42.782 99.178,78.636 61.352,13.119 61.13,12.736 52.628,17.645 90.678,83.55 64.741,57.612 64.428,57.3 l -6.943,6.941 26.25,26.25 -65.903,-38.05 -4.91,8.502 65.904,38.05 -35.429,-9.493 -0.428,-0.114 -2.542,9.483 35.16,9.421 H 0 v 10.19 h 75.588 l -34.733,9.308 -0.427,0.114 2.541,9.484 35.859,-9.609 -65.522,37.828 -0.383,0.223 4.909,8.502 65.901,-38.048 -26.248,26.246 6.943,6.943 26.25,-26.249 -37.829,65.521 -0.221,0.384 8.503,4.907 38.05,-65.903 -9.609,35.857 9.484,2.542 9.607,-35.854 v 76.095 h 9.818 v -76.094 l 9.493,35.425 0.114,0.427 9.484,-2.541 -9.608,-35.859 38.051,65.906 8.502,-4.91 -38.047,-65.899 25.932,25.933 0.314,0.312 6.942,-6.943 -26.248,-26.247 65.902,38.049 4.91,-8.502 -65.905,-38.05 35.431,9.493 0.428,0.115 2.542,-9.484 -35.16,-6.06456 H 697.96484 V 105.77192 H 151.556 l 34.733,-6.78892 0.429,-0.114 -2.542,-9.483 -35.858,9.608 65.904,-38.05 -4.908,-8.503 -65.904,38.049 z" /><rect
       style="fill:none;fill-opacity:1;stroke:#ffffff;stroke-width:0.370417;stroke-dasharray:none;stroke-opacity:1"
       id="rect41"
       width="0.8218891"
       height="10.391903"
       x="1.8855103"
       y="10.782539" /><rect
       style="fill:none;fill-opacity:1;stroke:#ffffff;stroke-width:0.370417;stroke-dasharray:none;stroke-opacity:1"
       id="rect42"
       width="0.8218891"
       height="10.391903"
       x="23.883131"
       y="10.782539" /></g></svg>
