<?xml version="1.0" encoding="UTF-8" standalone="no"?>
<!-- Created with Inkscape (http://www.inkscape.org/) -->

<svg
   width="127.99999"
   height="128"
   viewBox="0 0 33.866664 33.866667"
   version="1.1"
   id="svg1"
   xml:space="preserve"
   xmlns="http://www.w3.org/2000/svg"
   xmlns:svg="http://www.w3.org/2000/svg"><defs
     id="defs1" /><g
     id="layer6"><g
       style="fill:#000000"
       id="g70"
       transform="matrix(0.41341146,0,0,0.41341146,-74.347917,-92.604167)"><g
         id="g2"
         transform="matrix(0.155803,0,0,0.155803,181.03092,224.76836)"
         style="stroke-width:6.41836">
	<g
   id="g1"
   style="stroke-width:6.41836">
		<path
   d="M 418.364,0 0,418.364 93.636,512 512,93.636 Z M 22.153,418.364 38.596,401.921 93.471,456.796 104.547,445.72 49.672,390.845 60.611,379.906 77.088,396.383 88.164,385.306 71.687,368.829 82.626,357.89 l 27.485,27.485 11.077,-11.076 -27.485,-27.485 10.939,-10.939 16.477,16.477 11.076,-11.077 -16.477,-16.477 10.939,-10.939 54.874,54.875 11.076,-11.077 -54.875,-54.875 10.939,-10.939 16.477,16.477 11.076,-11.076 -16.476,-16.474 10.939,-10.939 27.485,27.485 11.076,-11.076 -27.485,-27.485 10.939,-10.939 16.477,16.477 11.076,-11.076 -16.477,-16.477 10.939,-10.939 54.874,54.875 11.077,-11.076 -54.874,-54.875 10.939,-10.939 16.477,16.477 11.076,-11.076 -16.477,-16.477 10.939,-10.939 27.485,27.485 11.076,-11.076 -27.479,-27.49 10.939,-10.939 16.477,16.477 11.077,-11.076 -16.477,-16.477 10.939,-10.939 54.875,54.875 11.077,-11.076 -54.875,-54.874 10.939,-10.939 16.477,16.477 11.077,-11.076 -16.477,-16.477 10.939,-10.939 27.485,27.485 11.076,-11.076 L 357.889,82.629 368.828,71.69 385.305,88.167 396.382,77.091 379.904,60.614 390.843,49.675 445.718,104.55 456.794,93.474 401.919,38.599 418.362,22.156 489.844,93.638 93.636,489.847 Z"
   id="path1-4"
   style="fill:#ffffff;fill-opacity:1;stroke-width:6.41631;stroke-dasharray:none" />
	</g>
</g></g></g></svg>
